@startuml DB
hide circle
skinparam Linetype ortho

entity "学生" as t1 {
  <<PK>> 学籍番号
  --
  名前
  パスワード
  SAかTA
}

entity "教科" as t2 {
  <<PK>> 教科ID
  --
  教科名
  担当教員
}

entity "勤務データ" as t3 {
  <<PK>> 勤務ID
  --
  <<FK>> 学籍番号
  <<FK>> 教科ID
  日付
  開始時刻
  終了時刻
  休憩時間
  勤務時間
  勤務内容
}


t1 ||..o{ t3
t2 ||..|{ t3


@enduml